<svg xmlns="http://www.w3.org/2000/svg" version="1.1" xmlns:xlink="http://www.w3.org/1999/xlink" xmlns:svgjs="http://svgjs.dev/svgjs" width="1500" height="621" viewBox="0 0 1500 621"><g transform="matrix(1,0,0,1,-0.9090909090909918,0.595666418226358)"><svg viewBox="0 0 396 164" data-background-color="#171717" preserveAspectRatio="xMidYMid meet" height="621" width="1500" xmlns="http://www.w3.org/2000/svg" xmlns:xlink="http://www.w3.org/1999/xlink"><g id="tight-bounds" transform="matrix(1,0,0,1,0.2400000000000091,0.1767380907248679)"><svg viewBox="0 0 395.52 163.6538536464532" height="163.6538536464532" width="395.52"><g><svg viewBox="0 0 395.52 163.6538536464532" height="163.6538536464532" width="395.52"><g transform="matrix(1,0,0,1,0,99.07024345821314)"><svg viewBox="0 0 395.52 64.58361018824006" height="64.58361018824006" width="395.52"><g id="textblocktransform"><svg viewBox="0 0 395.52 64.58361018824006" height="64.58361018824006" width="395.52" id="textblock"><g><svg viewBox="0 0 395.52 41.57853478568491" height="41.57853478568491" width="395.52"><g transform="matrix(1,0,0,1,0,0)"><svg width="395.52" viewBox="0 -35.21 339.6251877507847 35.71" height="41.57853478568491" data-palette-color="#ff5b99"><g transform="matrix(1,0,0,1,0,0)"><g><svg width="9.270177750784706" viewBox="3.16 -36.36 61.040000000000006 36.36" height="5.522200126121896" data-palette-color="#ff5b99" id="scriptelement" x="328.43508887539235" y="-31.41609006306095"><path d="M27.73 0L3.16 0 3.16-36.36 27.66-36.36 27.66-30.02 10.85-30.02 10.85-21.36 26.4-21.36 26.4-15.02 10.85-15.02 10.85-6.34 27.73-6.34 27.73 0ZM56.55-36.36L64.2-36.36 64.2 0 57.56 0 41.74-22.89 41.47-22.89 41.47 0 33.79 0 33.79-36.36 40.53-36.36 56.23-13.49 56.55-13.49 56.55-36.36Z" opacity="1" transform="matrix(1,0,0,1,0,0)" fill="#ff5b99" class="undefined-123" data-fill-palette-color="primary" id="tk-123"></path></svg></g></g><path d="M326.515-28.655C326.515-32.275 329.45-35.21 333.07-35.21 336.69-35.21 339.625-32.275 339.625-28.655 339.625-25.035 336.69-22.1 333.07-22.1 329.45-22.1 326.515-25.035 326.515-28.655ZM333.07-22.5C336.469-22.5 339.225-25.256 339.225-28.655 339.225-32.054 336.469-34.81 333.07-34.81 329.671-34.81 326.915-32.054 326.915-28.655 326.915-25.256 329.671-22.5 333.07-22.5Z" fill="#ff5b99" id="scriptcircle" data-fill-palette-color="primary"></path><path d="M2.29-7.35L3.1-7.35 7.2-6.91 8.96-6.91Q12.35-6.91 13.88-8.3 15.41-9.69 15.41-12.99L15.41-12.99 15.41-32.69Q15.41-33.64 16.08-34.33 16.75-35.01 17.7-35.01L17.7-35.01 22.24-35.01Q23.24-35.01 23.93-34.33 24.61-33.64 24.61-32.69L24.61-32.69 24.61-13.06Q24.61-6.81 20.46-3.41 16.31 0 9.2 0L9.2 0 2.29 0Q1.34 0 0.67-0.67 0-1.34 0-2.29L0-2.29 0-5.05Q0-6.01 0.65-6.68 1.29-7.35 2.29-7.35L2.29-7.35ZM32.31-1.76Q29.07-4 29.07-8.11 29.07-12.21 32.31-14.4 35.54-16.6 40.65-16.6L40.65-16.6 48.73-16.6Q48.73-19.46 47.53-20.58 46.34-21.7 43.34-21.7 40.35-21.7 39.15-20.23 37.94-18.75 36.18-18.75L36.18-18.75 32.54-18.75Q31.88-18.75 31.46-19.18 31.03-19.6 31.03-20.24L31.03-20.24Q31.03-27.25 44.33-27.25L44.33-27.25Q50.14-27.25 53.66-24.65 57.18-22.05 57.18-16.6L57.18-16.6 57.18-1.49Q57.18-0.83 56.76-0.42 56.35 0 55.69 0L55.69 0 50.97 0Q50.31 0 49.9-0.43 49.48-0.85 49.48-1.49L49.48-1.49 49.48-2.25Q45.63 0.51 40.59 0.5 35.54 0.49 32.31-1.76ZM41.23-11.06Q39.52-11.06 38.54-10.23 37.55-9.4 37.55-8.08 37.55-6.76 38.57-5.91 39.6-5.05 41.48-5.05L41.48-5.05Q45.24-5.05 48.73-7.25L48.73-7.25 48.73-11.06 41.23-11.06ZM63.18-1.49L63.18-1.49 63.18-25.24Q63.18-25.9 63.61-26.33 64.03-26.76 64.67-26.76L64.67-26.76 70.14-26.76Q70.77-26.76 71.2-26.33 71.63-25.9 71.63-25.24L71.63-25.24 71.63-23.71Q75.83-27.25 80.57-27.25 85.32-27.25 88.3-24.35 91.28-21.46 91.28-15.5L91.28-15.5 91.28-1.49Q91.28-0.85 90.85-0.43 90.42 0 89.77 0L89.77 0 84.32 0Q83.69 0 83.26-0.43 82.83-0.85 82.83-1.49L82.83-1.49 82.83-15.5Q82.83-21.34 78.17-21.34L78.17-21.34Q75.12-21.34 71.63-17.85L71.63-17.85 71.63-1.49Q71.63-0.85 71.2-0.43 70.77 0 70.14 0L70.14 0 64.67 0Q64.03 0 63.61-0.43 63.18-0.85 63.18-1.49ZM99.53-3.08Q95.77-6.64 95.77-13.34 95.77-20.04 99.55-23.65 103.34-27.25 110.05-27.25 116.76-27.25 120.52-23.74 124.28-20.24 124.28-13.7L124.28-13.7 124.28-12.3Q124.28-11.65 123.86-11.22 123.43-10.79 122.77-10.79L122.77-10.79 104.39-10.79Q104.63-7.79 106.11-6.42 107.59-5.05 110.83-5.05 114.08-5.05 115.28-6.52 116.47-7.98 118.23-8.01L118.23-8.01 121.87-8.01Q122.53-8.01 122.95-7.58 123.38-7.15 123.38-6.49L123.38-6.49Q123.38 0.51 110.03 0.49L110.03 0.49Q103.29 0.49 99.53-3.08ZM104.34-15.94L104.34-15.94 115.69-15.94Q115.45-21.7 110.04-21.7 104.63-21.7 104.34-15.94ZM144.76-8.96L144.76-8.96Q144.76-10.4 145.62-11.02 146.47-11.65 147.28-11.65L147.28-11.65 150.18-11.65Q152.38-11.65 153.53-9.25 154.68-6.86 158.68-6.86L158.68-6.86 167.22-6.69Q171.52-6.69 171.52-9.5L171.52-9.5Q171.52-11.62 166.27-12.84L166.27-12.84Q163.93-13.4 161.1-13.95 158.26-14.5 155.47-15.33 152.67-16.16 150.33-17.29 147.99-18.41 146.53-20.37 145.08-22.34 145.08-25L145.08-25Q145.08-29.91 148.57-32.56 152.06-35.21 160.58-35.21L160.58-35.21 166.78-35.06Q171.79-35.06 175.81-32.48 179.82-29.91 179.82-26.05L179.82-26.05Q179.82-24.61 178.97-23.97 178.11-23.34 177.33-23.34L177.33-23.34 174.43-23.34Q172.23-23.34 171.08-25.74 169.93-28.15 165.93-28.15L165.93-28.15 158.58-28.3Q154.28-28.3 154.28-25.49L154.28-25.49Q154.28-23.95 157.01-22.97 159.73-22 163.6-21.25 167.47-20.51 171.37-19.46 175.28-18.41 178-16 180.72-13.6 180.72-10.01L180.72-10.01Q180.72-5.1 177.22-2.45 173.72 0.2 165.22 0.2L165.22 0.2 157.82 0.05Q152.82 0.05 148.79-2.53 144.76-5.1 144.76-8.96ZM198.17 0.49Q191.32 0.49 187.51-3.03 183.7-6.54 183.7-13.37 183.7-20.19 187.49-23.72 191.27-27.25 198.02-27.25 204.77-27.25 208.4-25.1 212.02-22.95 212.02-18.75L212.02-18.75Q212.02-18.09 211.59-17.68 211.17-17.26 210.51-17.26L210.51-17.26 206.87-17.26Q205.21-17.26 204.06-19.04L204.06-19.04Q202.62-21.34 198.97-21.34 195.32-21.34 193.87-19.47 192.42-17.6 192.42-13.38 192.42-9.16 193.92-7.28 195.42-5.4 199.14-5.4 202.87-5.4 204.31-7.69L204.31-7.69Q205.45-9.5 207.11-9.5L207.11-9.5 210.75-9.5Q211.41-9.5 211.84-9.07 212.27-8.64 212.27-8.01L212.27-8.01Q212.27-3.81 208.64-1.66 205.01 0.49 198.17 0.49ZM216.27-1.49L216.27-1.49 216.27-33.5Q216.27-34.16 216.69-34.58 217.12-35.01 217.76-35.01L217.76-35.01 223.22-35.01Q223.86-35.01 224.29-34.58 224.71-34.16 224.71-33.5L224.71-33.5 224.71-23.71Q228.91-27.25 233.66-27.25 238.41-27.25 241.39-24.35 244.37-21.46 244.37-15.5L244.37-15.5 244.37-1.49Q244.37-0.85 243.94-0.43 243.51 0 242.85 0L242.85 0 237.41 0Q236.77 0 236.35-0.43 235.92-0.85 235.92-1.49L235.92-1.49 235.92-15.5Q235.92-21.34 231.26-21.34L231.26-21.34Q228.21-21.34 224.71-17.85L224.71-17.85 224.71-1.49Q224.71-0.85 224.29-0.43 223.86 0 223.22 0L223.22 0 217.76 0Q217.12 0 216.69-0.43 216.27-0.85 216.27-1.49ZM252.67-3.03Q248.86-6.54 248.86-13.39 248.86-20.24 252.67-23.74 256.47-27.25 263.62-27.25 270.76-27.25 274.56-23.74 278.37-20.24 278.37-13.39 278.37-6.54 274.56-3.03 270.76 0.49 263.62 0.49 256.47 0.49 252.67-3.03ZM258.84-19.73Q257.33-17.75 257.33-13.4 257.33-9.06 258.84-7.06 260.36-5.05 263.62-5.05 266.87-5.05 268.4-7.06 269.93-9.06 269.93-13.4 269.93-17.75 268.4-19.73 266.87-21.7 263.62-21.7 260.36-21.7 258.84-19.73ZM285.16-3.03Q281.35-6.54 281.35-13.39 281.35-20.24 285.16-23.74 288.97-27.25 296.11-27.25 303.25-27.25 307.06-23.74 310.87-20.24 310.87-13.39 310.87-6.54 307.06-3.03 303.25 0.49 296.11 0.49 288.97 0.49 285.16-3.03ZM291.33-19.73Q289.82-17.75 289.82-13.4 289.82-9.06 291.33-7.06 292.85-5.05 296.11-5.05 299.37-5.05 300.89-7.06 302.42-9.06 302.42-13.4 302.42-17.75 300.89-19.73 299.37-21.7 296.11-21.7 292.85-21.7 291.33-19.73ZM315.36-1.49L315.36-1.49 315.36-33.5Q315.36-34.16 315.78-34.58 316.21-35.01 316.85-35.01L316.85-35.01 322.31-35.01Q322.95-35.01 323.38-34.58 323.8-34.16 323.8-33.5L323.8-33.5 323.8-1.49Q323.8-0.85 323.38-0.43 322.95 0 322.31 0L322.31 0 316.85 0Q316.21 0 315.78-0.43 315.36-0.85 315.36-1.49Z" opacity="1" transform="matrix(1,0,0,1,0,0)" fill="#ff5b99" class="wordmark-text-0" data-fill-palette-color="primary" id="text-0"></path></svg></g></svg></g><g transform="matrix(1,0,0,1,55.47375904501058,51.39422896375026)"><svg viewBox="0 0 319.38239999999996 13.189381224489795" height="13.189381224489795" width="319.38239999999996"><g transform="matrix(1,0,0,1,0,0)"><svg width="319.38239999999996" viewBox="2.98 -38.07 1183.12 48.87" height="13.189381224489795" data-palette-color="#ffffff"><path d="M35.09-18.18L35.09-18.18Q35.09-12.43 33.01-8.24 30.93-4.05 27.31-1.78 23.69 0.5 19.03 0.5L19.03 0.5Q14.38 0.5 10.76-1.78 7.14-4.05 5.06-8.24 2.98-12.43 2.98-18.18L2.98-18.18Q2.98-23.93 5.06-28.13 7.14-32.32 10.76-34.59 14.38-36.86 19.03-36.86L19.03-36.86Q23.69-36.86 27.31-34.59 30.93-32.32 33.01-28.13 35.09-23.93 35.09-18.18ZM30.82-18.18L30.82-18.18Q30.82-22.9 29.25-26.15 27.68-29.4 25.01-31.07 22.34-32.74 19.03-32.74L19.03-32.74Q15.73-32.74 13.06-31.07 10.39-29.4 8.82-26.15 7.24-22.9 7.24-18.18L7.24-18.18Q7.24-13.46 8.82-10.21 10.39-6.96 13.06-5.29 15.73-3.62 19.03-3.62L19.03-3.62Q22.34-3.62 25.01-5.29 27.68-6.96 29.25-10.21 30.82-13.46 30.82-18.18ZM46.09 10.23L41.9 10.23 41.9-27.27 45.95-27.27 45.95-22.94 46.45-22.94Q46.91-23.65 47.73-24.76 48.56-25.87 50.11-26.75 51.67-27.63 54.33-27.63L54.33-27.63Q57.77-27.63 60.4-25.91 63.03-24.18 64.5-21.02 65.98-17.86 65.98-13.57L65.98-13.57Q65.98-9.23 64.5-6.06 63.03-2.89 60.42-1.16 57.81 0.57 54.4 0.57L54.4 0.57Q51.77 0.57 50.19-0.31 48.61-1.19 47.76-2.32 46.91-3.44 46.45-4.19L46.45-4.19 46.09-4.19 46.09 10.23ZM46.02-13.64L46.02-13.64Q46.02-10.55 46.93-8.19 47.83-5.84 49.57-4.52 51.31-3.2 53.83-3.2L53.83-3.2Q56.46-3.2 58.23-4.59 59.99-5.98 60.89-8.35 61.79-10.72 61.79-13.64L61.79-13.64Q61.79-16.51 60.91-18.83 60.03-21.15 58.26-22.51 56.5-23.86 53.83-23.86L53.83-23.86Q51.28-23.86 49.54-22.58 47.8-21.29 46.91-18.99 46.02-16.69 46.02-13.64ZM83.8 0.57L83.8 0.57Q79.86 0.57 77.01-1.18 74.16-2.93 72.62-6.08 71.09-9.23 71.09-13.42L71.09-13.42Q71.09-17.61 72.62-20.82 74.16-24.02 76.92-25.83 79.68-27.63 83.38-27.63L83.38-27.63Q85.51-27.63 87.58-26.92 89.66-26.21 91.37-24.62 93.07-23.03 94.08-20.42 95.09-17.81 95.09-13.99L95.09-13.99 95.09-12.22 74.07-12.22 74.07-15.84 90.83-15.84Q90.83-18.15 89.92-19.96 89-21.77 87.33-22.82 85.65-23.86 83.38-23.86L83.38-23.86Q80.87-23.86 79.05-22.63 77.23-21.4 76.26-19.42 75.28-17.45 75.28-15.2L75.28-15.2 75.28-12.78Q75.28-9.69 76.35-7.56 77.43-5.42 79.35-4.31 81.26-3.2 83.8-3.2L83.8-3.2Q85.45-3.2 86.79-3.67 88.13-4.14 89.11-5.09 90.09-6.04 90.62-7.46L90.62-7.46 94.67-6.32Q94.03-4.26 92.52-2.71 91.01-1.15 88.79-0.29 86.57 0.57 83.8 0.57ZM105.67-16.41L105.67-16.41 105.67 0 101.48 0 101.48-27.27 105.53-27.27 105.53-23.01 105.89-23.01Q106.85-25.09 108.8-26.36 110.75-27.63 113.84-27.63L113.84-27.63Q116.61-27.63 118.69-26.5 120.77-25.37 121.92-23.09 123.07-20.81 123.07-17.33L123.07-17.33 123.07 0 118.88 0 118.88-17.05Q118.88-20.26 117.22-22.06 115.55-23.86 112.63-23.86L112.63-23.86Q110.63-23.86 109.06-22.99 107.49-22.12 106.58-20.45 105.67-18.79 105.67-16.41ZM156.52 0L151.98 0 142.03-36.36 146.51-36.36 154.11-6.75 154.46-6.75 162.2-36.36 167.18-36.36 174.92-6.75 175.27-6.75 182.87-36.36 187.35-36.36 177.4 0 172.86 0 164.83-28.98 164.55-28.98 156.52 0ZM203.32 0.57L203.32 0.57Q199.63 0.57 196.85-1.19 194.07-2.95 192.52-6.11 190.97-9.27 190.97-13.49L190.97-13.49Q190.97-17.76 192.52-20.93 194.07-24.11 196.85-25.87 199.63-27.63 203.32-27.63L203.32-27.63Q207.02-27.63 209.8-25.87 212.57-24.11 214.13-20.93 215.68-17.76 215.68-13.49L215.68-13.49Q215.68-9.27 214.13-6.11 212.57-2.95 209.8-1.19 207.02 0.57 203.32 0.57ZM203.32-3.2L203.32-3.2Q206.13-3.2 207.94-4.63 209.75-6.07 210.62-8.42 211.49-10.76 211.49-13.49L211.49-13.49Q211.49-16.23 210.62-18.59 209.75-20.95 207.94-22.41 206.13-23.86 203.32-23.86L203.32-23.86Q200.52-23.86 198.71-22.41 196.9-20.95 196.03-18.59 195.16-16.23 195.16-13.49L195.16-13.49Q195.16-10.76 196.03-8.42 196.9-6.07 198.71-4.63 200.52-3.2 203.32-3.2ZM226.26 0L222.07 0 222.07-27.27 226.12-27.27 226.12-23.15 226.4-23.15Q227.15-25.18 229.1-26.44 231.05-27.7 233.51-27.7L233.51-27.7Q233.97-27.7 234.66-27.68 235.35-27.66 235.71-27.63L235.71-27.63 235.71-23.37Q235.49-23.42 234.74-23.54 233.98-23.65 233.15-23.65L233.15-23.65Q231.16-23.65 229.61-22.82 228.05-22 227.16-20.55 226.26-19.11 226.26-17.26L226.26-17.26 226.26 0ZM240.68-36.36L244.87-36.36 244.87 0 240.68 0 240.68-36.36ZM262.83 0.57L262.83 0.57Q259.42 0.57 256.81-1.16 254.2-2.89 252.73-6.06 251.26-9.23 251.26-13.57L251.26-13.57Q251.26-17.86 252.73-21.02 254.2-24.18 256.83-25.91 259.46-27.63 262.9-27.63L262.9-27.63Q265.57-27.63 267.12-26.75 268.67-25.87 269.5-24.76 270.33-23.65 270.79-22.94L270.79-22.94 271.14-22.94 271.14-36.36 275.33-36.36 275.33 0 271.28 0 271.28-4.19 270.79-4.19Q270.33-3.44 269.47-2.32 268.62-1.19 267.04-0.31 265.46 0.57 262.83 0.57ZM263.4-3.2L263.4-3.2Q265.92-3.2 267.66-4.52 269.4-5.84 270.31-8.19 271.21-10.55 271.21-13.64L271.21-13.64Q271.21-16.69 270.33-18.99 269.44-21.29 267.7-22.58 265.96-23.86 263.4-23.86L263.4-23.86Q260.74-23.86 258.97-22.51 257.2-21.15 256.33-18.83 255.45-16.51 255.45-13.64L255.45-13.64Q255.45-10.72 256.34-8.35 257.24-5.98 259.01-4.59 260.77-3.2 263.4-3.2ZM285.27-4.97L289.82-4.97 289.53-3.05Q289.23-1.03 288.62 1.28 288.01 3.59 287.35 5.63 286.69 7.67 286.27 8.88L286.27 8.88 283.07 8.88Q283.3 7.74 283.68 5.88 284.05 4.01 284.43 1.71 284.81-0.59 285.06-2.98L285.06-2.98 285.27-4.97ZM316.59 0L312.19 0 312.19-36.36 333.99-36.36 333.99-32.46 316.59-32.46 316.59-20.17 332.36-20.17 332.36-16.26 316.59-16.26 316.59 0ZM340.95-36.36L345.14-36.36 345.14 0 340.95 0 340.95-36.36ZM369.99-11.15L369.99-11.15 369.99-27.27 374.18-27.27 374.18 0 369.99 0 369.99-4.62 369.71-4.62Q368.75-2.54 366.73-1.09 364.7 0.36 361.61 0.36L361.61 0.36Q359.06 0.36 357.07-0.77 355.08-1.9 353.94-4.18 352.81-6.46 352.81-9.94L352.81-9.94 352.81-27.27 357-27.27 357-10.23Q357-7.24 358.67-5.47 360.35-3.69 362.96-3.69L362.96-3.69Q364.52-3.69 366.15-4.49 367.77-5.29 368.88-6.94 369.99-8.59 369.99-11.15ZM393.29 0.57L393.29 0.57Q389.34 0.57 386.49-1.18 383.65-2.93 382.11-6.08 380.57-9.23 380.57-13.42L380.57-13.42Q380.57-17.61 382.11-20.82 383.65-24.02 386.41-25.83 389.17-27.63 392.86-27.63L392.86-27.63Q394.99-27.63 397.07-26.92 399.15-26.21 400.85-24.62 402.55-23.03 403.57-20.42 404.58-17.81 404.58-13.99L404.58-13.99 404.58-12.22 383.56-12.22 383.56-15.84 400.32-15.84Q400.32-18.15 399.4-19.96 398.49-21.77 396.81-22.82 395.13-23.86 392.86-23.86L392.86-23.86Q390.36-23.86 388.54-22.63 386.72-21.4 385.74-19.42 384.76-17.45 384.76-15.2L384.76-15.2 384.76-12.78Q384.76-9.69 385.84-7.56 386.91-5.42 388.83-4.31 390.75-3.2 393.29-3.2L393.29-3.2Q394.94-3.2 396.28-3.67 397.62-4.14 398.6-5.09 399.57-6.04 400.1-7.46L400.1-7.46 404.15-6.32Q403.51-4.26 402-2.71 400.5-1.15 398.28-0.29 396.06 0.57 393.29 0.57ZM415.16-16.41L415.16-16.41 415.16 0 410.97 0 410.97-27.27 415.02-27.27 415.02-23.01 415.37-23.01Q416.33-25.09 418.28-26.36 420.24-27.63 423.33-27.63L423.33-27.63Q426.1-27.63 428.17-26.5 430.25-25.37 431.41-23.09 432.56-20.81 432.56-17.33L432.56-17.33 432.56 0 428.37 0 428.37-17.05Q428.37-20.26 426.7-22.06 425.03-23.86 422.12-23.86L422.12-23.86Q420.11-23.86 418.54-22.99 416.97-22.12 416.06-20.45 415.16-18.79 415.16-16.41ZM437.95-27.27L452.09-27.27 452.09-23.72 437.95-23.72 437.95-27.27ZM442.07-6.68L442.07-33.81 446.26-33.81 446.26-7.81Q446.26-6.04 446.79-5.16 447.31-4.28 448.14-3.99 448.96-3.69 449.89-3.69L449.89-3.69Q450.58-3.69 451.02-3.77 451.47-3.85 451.73-3.91L451.73-3.91 452.59-0.14Q452.16 0.02 451.4 0.19 450.63 0.36 449.46 0.36L449.46 0.36Q447.68 0.36 445.99-0.41 444.29-1.17 443.18-2.73 442.07-4.3 442.07-6.68L442.07-6.68ZM495.27 0L473.03 0 473.03-36.36 494.98-36.36 494.98-32.46 477.44-32.46 477.44-20.17 493.84-20.17 493.84-16.26 477.44-16.26 477.44-3.91 495.27-3.91 495.27 0ZM506.56-16.41L506.56-16.41 506.56 0 502.36 0 502.36-27.27 506.41-27.27 506.41-23.01 506.77-23.01Q507.73-25.09 509.68-26.36 511.63-27.63 514.72-27.63L514.72-27.63Q517.49-27.63 519.57-26.5 521.65-25.37 522.8-23.09 523.96-20.81 523.96-17.33L523.96-17.33 523.96 0 519.77 0 519.77-17.05Q519.77-20.26 518.1-22.06 516.43-23.86 513.52-23.86L513.52-23.86Q511.51-23.86 509.94-22.99 508.37-22.12 507.46-20.45 506.56-18.79 506.56-16.41ZM542.63 10.8L542.63 10.8Q539.6 10.8 537.41 10.02 535.23 9.25 533.78 8 532.33 6.75 531.48 5.33L531.48 5.33 534.82 2.98Q535.39 3.73 536.26 4.7 537.13 5.66 538.65 6.38 540.16 7.1 542.63 7.1L542.63 7.1Q545.93 7.1 548.08 5.5 550.23 3.91 550.23 0.5L550.23 0.5 550.23-5.04 549.88-5.04Q549.41-4.3 548.57-3.2 547.73-2.11 546.16-1.27 544.59-0.43 541.92-0.43L541.92-0.43Q538.62-0.43 536-1.99 533.38-3.55 531.86-6.53 530.35-9.52 530.35-13.78L530.35-13.78Q530.35-17.97 531.82-21.08 533.29-24.2 535.92-25.91 538.55-27.63 541.99-27.63L541.99-27.63Q544.66-27.63 546.23-26.75 547.8-25.87 548.64-24.76 549.49-23.65 549.95-22.94L549.95-22.94 550.37-22.94 550.37-27.27 554.42-27.27 554.42 0.78Q554.42 4.3 552.83 6.51 551.24 8.72 548.57 9.76 545.9 10.8 542.63 10.8ZM542.49-4.19L542.49-4.19Q545.01-4.19 546.75-5.34 548.49-6.5 549.4-8.66 550.3-10.83 550.3-13.85L550.3-13.85Q550.3-16.8 549.41-19.05 548.53-21.31 546.79-22.59 545.05-23.86 542.49-23.86L542.49-23.86Q539.83-23.86 538.06-22.51 536.29-21.16 535.41-18.89 534.54-16.62 534.54-13.85L534.54-13.85Q534.54-11.01 535.43-8.83 536.33-6.66 538.1-5.42 539.86-4.19 542.49-4.19ZM562.09-36.36L566.28-36.36 566.28 0 562.09 0 562.09-36.36ZM578.14 0L573.95 0 573.95-27.27 578.14-27.27 578.14 0ZM576.08-31.82L576.08-31.82Q574.85-31.82 573.97-32.65 573.1-33.49 573.1-34.66L573.1-34.66Q573.1-35.83 573.97-36.67 574.85-37.5 576.08-37.5L576.08-37.5Q577.3-37.5 578.18-36.67 579.06-35.83 579.06-34.66L579.06-34.66Q579.06-33.49 578.18-32.65 577.3-31.82 576.08-31.82ZM605.12-21.16L605.12-21.16 601.36-20.1Q601.01-21.04 600.32-21.94 599.64-22.83 598.47-23.42 597.29-24.01 595.47-24.01L595.47-24.01Q592.96-24.01 591.3-22.86 589.64-21.72 589.64-19.96L589.64-19.96Q589.64-18.39 590.78-17.49 591.91-16.58 594.33-15.98L594.33-15.98 598.38-14.99Q602.04-14.1 603.83-12.28 605.62-10.46 605.62-7.6L605.62-7.6Q605.62-5.26 604.28-3.41 602.94-1.56 600.54-0.5 598.15 0.57 594.97 0.57L594.97 0.57Q590.8 0.57 588.06-1.24 585.33-3.05 584.6-6.53L584.6-6.53 588.58-7.53Q589.14-5.33 590.73-4.23 592.32-3.13 594.9-3.13L594.9-3.13Q597.83-3.13 599.56-4.38 601.29-5.63 601.29-7.39L601.29-7.39Q601.29-8.81 600.3-9.77 599.3-10.74 597.24-11.22L597.24-11.22 592.7-12.29Q588.95-13.17 587.2-15.05 585.45-16.92 585.45-19.74L585.45-19.74Q585.45-22.05 586.76-23.83 588.06-25.6 590.33-26.62 592.59-27.63 595.47-27.63L595.47-27.63Q599.51-27.63 601.83-25.85 604.15-24.08 605.12-21.16ZM616.13-16.41L616.13-16.41 616.13 0 611.94 0 611.94-36.36 616.13-36.36 616.13-23.01 616.49-23.01Q617.44-25.12 619.37-26.38 621.3-27.63 624.51-27.63L624.51-27.63Q627.3-27.63 629.39-26.52 631.49-25.41 632.65-23.13 633.82-20.85 633.82-17.33L633.82-17.33 633.82 0 629.62 0 629.62-17.05Q629.62-20.29 627.95-22.08 626.27-23.86 623.3-23.86L623.3-23.86Q621.24-23.86 619.62-22.99 618-22.12 617.06-20.45 616.13-18.79 616.13-16.41ZM651.71-17.54L676.71-17.54 676.71-13.64 651.71-13.64 651.71-17.54ZM716.48 0L695.17 0 695.17-36.36 699.57-36.36 699.57-3.91 716.48-3.91 716.48 0ZM726.91 0L722.72 0 722.72-27.27 726.91-27.27 726.91 0ZM724.85-31.82L724.85-31.82Q723.63-31.82 722.75-32.65 721.87-33.49 721.87-34.66L721.87-34.66Q721.87-35.83 722.75-36.67 723.63-37.5 724.85-37.5L724.85-37.5Q726.08-37.5 726.96-36.67 727.84-35.83 727.84-34.66L727.84-34.66Q727.84-33.49 726.96-32.65 726.08-31.82 724.85-31.82ZM732.02-27.27L746.73-27.27 746.73-23.72 732.02-23.72 732.02-27.27ZM740.62 0L736.43 0 736.43-31.04Q736.43-33.38 737.53-34.94 738.63-36.51 740.39-37.29 742.15-38.07 744.1-38.07L744.1-38.07Q745.64-38.07 746.62-37.82 747.6-37.57 748.08-37.36L748.08-37.36 746.87-33.74Q746.55-33.84 745.99-34 745.43-34.16 744.52-34.16L744.52-34.16Q742.45-34.16 741.53-33.11 740.62-32.07 740.62-30.04L740.62-30.04 740.62 0ZM764.05 0.57L764.05 0.57Q760.11 0.57 757.26-1.18 754.41-2.93 752.88-6.08 751.34-9.23 751.34-13.42L751.34-13.42Q751.34-17.61 752.88-20.82 754.41-24.02 757.17-25.83 759.93-27.63 763.63-27.63L763.63-27.63Q765.76-27.63 767.84-26.92 769.91-26.21 771.62-24.62 773.32-23.03 774.33-20.42 775.35-17.81 775.35-13.99L775.35-13.99 775.35-12.22 754.32-12.22 754.32-15.84 771.08-15.84Q771.08-18.15 770.17-19.96 769.26-21.77 767.58-22.82 765.9-23.86 763.63-23.86L763.63-23.86Q761.12-23.86 759.3-22.63 757.48-21.4 756.51-19.42 755.53-17.45 755.53-15.2L755.53-15.2 755.53-12.78Q755.53-9.69 756.61-7.56 757.68-5.42 759.6-4.31 761.51-3.2 764.05-3.2L764.05-3.2Q765.7-3.2 767.05-3.67 768.39-4.14 769.36-5.09 770.34-6.04 770.87-7.46L770.87-7.46 774.92-6.32Q774.28-4.26 772.77-2.71 771.26-1.15 769.04-0.29 766.82 0.57 764.05 0.57ZM807.51 0L802.97 0 793.03-36.36 797.5-36.36 805.1-6.75 805.45-6.75 813.2-36.36 818.17-36.36 825.91-6.75 826.26-6.75 833.86-36.36 838.34-36.36 828.4 0 823.85 0 815.82-28.98 815.54-28.98 807.51 0ZM847.43 0L843.24 0 843.24-27.27 847.43-27.27 847.43 0ZM845.37-31.82L845.37-31.82Q844.14-31.82 843.26-32.65 842.38-33.49 842.38-34.66L842.38-34.66Q842.38-35.83 843.26-36.67 844.14-37.5 845.37-37.5L845.37-37.5Q846.59-37.5 847.47-36.67 848.35-35.83 848.35-34.66L848.35-34.66Q848.35-33.49 847.47-32.65 846.59-31.82 845.37-31.82ZM852.82-27.27L866.96-27.27 866.96-23.72 852.82-23.72 852.82-27.27ZM856.94-6.68L856.94-33.81 861.13-33.81 861.13-7.81Q861.13-6.04 861.66-5.16 862.18-4.28 863-3.99 863.83-3.69 864.75-3.69L864.75-3.69Q865.45-3.69 865.89-3.77 866.33-3.85 866.6-3.91L866.6-3.91 867.45-0.14Q867.03 0.02 866.26 0.19 865.5 0.36 864.33 0.36L864.33 0.36Q862.55 0.36 860.86-0.41 859.16-1.17 858.05-2.73 856.94-4.3 856.94-6.68L856.94-6.68ZM877.46-16.41L877.46-16.41 877.46 0 873.27 0 873.27-36.36 877.46-36.36 877.46-23.01 877.82-23.01Q878.78-25.12 880.7-26.38 882.63-27.63 885.84-27.63L885.84-27.63Q888.63-27.63 890.73-26.52 892.82-25.41 893.99-23.13 895.15-20.85 895.15-17.33L895.15-17.33 895.15 0 890.96 0 890.96-17.05Q890.96-20.29 889.28-22.08 887.6-23.86 884.64-23.86L884.64-23.86Q882.58-23.86 880.95-22.99 879.33-22.12 878.4-20.45 877.46-18.79 877.46-16.41ZM913.9 0.57L913.9 0.57Q910.2 0.57 907.42-1.19 904.65-2.95 903.09-6.11 901.54-9.27 901.54-13.49L901.54-13.49Q901.54-17.76 903.09-20.93 904.65-24.11 907.42-25.87 910.2-27.63 913.9-27.63L913.9-27.63Q917.59-27.63 920.37-25.87 923.15-24.11 924.7-20.93 926.25-17.76 926.25-13.49L926.25-13.49Q926.25-9.27 924.7-6.11 923.15-2.95 920.37-1.19 917.59 0.57 913.9 0.57ZM913.9-3.2L913.9-3.2Q916.7-3.2 918.51-4.63 920.32-6.07 921.19-8.42 922.06-10.76 922.06-13.49L922.06-13.49Q922.06-16.23 921.19-18.59 920.32-20.95 918.51-22.41 916.7-23.86 913.9-23.86L913.9-23.86Q911.09-23.86 909.28-22.41 907.47-20.95 906.6-18.59 905.73-16.23 905.73-13.49L905.73-13.49Q905.73-10.76 906.6-8.42 907.47-6.07 909.28-4.63 911.09-3.2 913.9-3.2ZM949.83-11.15L949.83-11.15 949.83-27.27 954.02-27.27 954.02 0 949.83 0 949.83-4.62 949.55-4.62Q948.59-2.54 946.56-1.09 944.54 0.36 941.45 0.36L941.45 0.36Q938.89 0.36 936.91-0.77 934.92-1.9 933.78-4.18 932.64-6.46 932.64-9.94L932.64-9.94 932.64-27.27 936.83-27.27 936.83-10.23Q936.83-7.24 938.51-5.47 940.19-3.69 942.8-3.69L942.8-3.69Q944.36-3.69 945.99-4.49 947.61-5.29 948.72-6.94 949.83-8.59 949.83-11.15ZM959.42-27.27L973.55-27.27 973.55-23.72 959.42-23.72 959.42-27.27ZM963.54-6.68L963.54-33.81 967.73-33.81 967.73-7.81Q967.73-6.04 968.25-5.16 968.77-4.28 969.6-3.99 970.43-3.69 971.35-3.69L971.35-3.69Q972.04-3.69 972.49-3.77 972.93-3.85 973.2-3.91L973.2-3.91 974.05-0.14Q973.62 0.02 972.86 0.19 972.09 0.36 970.92 0.36L970.92 0.36Q969.15 0.36 967.45-0.41 965.76-1.17 964.65-2.73 963.54-4.3 963.54-6.68L963.54-6.68ZM1007.64 0L994.5 0 994.5-36.36 1007.21-36.36Q1011.01-36.36 1013.48-35.06 1015.95-33.75 1017.15-31.56 1018.36-29.37 1018.36-26.7L1018.36-26.7Q1018.36-24.36 1017.54-22.83 1016.71-21.31 1015.37-20.42 1014.03-19.53 1012.47-19.11L1012.47-19.11 1012.47-18.75Q1014.14-18.64 1015.82-17.58 1017.51-16.51 1018.64-14.52 1019.78-12.54 1019.78-9.66L1019.78-9.66Q1019.78-6.92 1018.54-4.74 1017.3-2.56 1014.61-1.28 1011.93 0 1007.64 0L1007.64 0ZM998.9-16.55L998.9-3.91 1007.64-3.91Q1011.95-3.91 1013.77-5.58 1015.59-7.26 1015.59-9.66L1015.59-9.66Q1015.59-11.51 1014.65-13.08 1013.71-14.65 1011.97-15.6 1010.23-16.55 1007.85-16.55L1007.85-16.55 998.9-16.55ZM998.9-32.46L998.9-20.38 1007.07-20.38Q1009.06-20.38 1010.66-21.16 1012.27-21.95 1013.22-23.37 1014.17-24.79 1014.17-26.7L1014.17-26.7Q1014.17-29.1 1012.5-30.78 1010.83-32.46 1007.21-32.46L1007.21-32.46 998.9-32.46ZM1037.53 0.57L1037.53 0.57Q1033.84 0.57 1031.06-1.19 1028.28-2.95 1026.73-6.11 1025.18-9.27 1025.18-13.49L1025.18-13.49Q1025.18-17.76 1026.73-20.93 1028.28-24.11 1031.06-25.87 1033.84-27.63 1037.53-27.63L1037.53-27.63Q1041.23-27.63 1044.01-25.87 1046.79-24.11 1048.34-20.93 1049.89-17.76 1049.89-13.49L1049.89-13.49Q1049.89-9.27 1048.34-6.11 1046.79-2.95 1044.01-1.19 1041.23 0.57 1037.53 0.57ZM1037.53-3.2L1037.53-3.2Q1040.34-3.2 1042.15-4.63 1043.96-6.07 1044.83-8.42 1045.7-10.76 1045.7-13.49L1045.7-13.49Q1045.7-16.23 1044.83-18.59 1043.96-20.95 1042.15-22.41 1040.34-23.86 1037.53-23.86L1037.53-23.86Q1034.73-23.86 1032.92-22.41 1031.11-20.95 1030.24-18.59 1029.37-16.23 1029.37-13.49L1029.37-13.49Q1029.37-10.76 1030.24-8.42 1031.11-6.07 1032.92-4.63 1034.73-3.2 1037.53-3.2ZM1060.47 0L1056.28 0 1056.28-27.27 1060.33-27.27 1060.33-23.15 1060.61-23.15Q1061.36-25.18 1063.31-26.44 1065.27-27.7 1067.72-27.7L1067.72-27.7Q1068.18-27.7 1068.87-27.68 1069.56-27.66 1069.92-27.63L1069.92-27.63 1069.92-23.37Q1069.71-23.42 1068.95-23.54 1068.2-23.65 1067.36-23.65L1067.36-23.65Q1065.37-23.65 1063.82-22.82 1062.27-22 1061.37-20.55 1060.47-19.11 1060.47-17.26L1060.47-17.26 1060.47 0ZM1085.19 0.57L1085.19 0.57Q1081.78 0.57 1079.17-1.16 1076.56-2.89 1075.08-6.06 1073.61-9.23 1073.61-13.57L1073.61-13.57Q1073.61-17.86 1075.08-21.02 1076.56-24.18 1079.18-25.91 1081.81-27.63 1085.26-27.63L1085.26-27.63Q1087.92-27.63 1089.47-26.75 1091.03-25.87 1091.85-24.76 1092.68-23.65 1093.14-22.94L1093.14-22.94 1093.5-22.94 1093.5-36.36 1097.69-36.36 1097.69 0 1093.64 0 1093.64-4.19 1093.14-4.19Q1092.68-3.44 1091.83-2.32 1090.97-1.19 1089.39-0.31 1087.81 0.57 1085.19 0.57ZM1085.75-3.2L1085.75-3.2Q1088.28-3.2 1090.02-4.52 1091.76-5.84 1092.66-8.19 1093.57-10.55 1093.57-13.64L1093.57-13.64Q1093.57-16.69 1092.68-18.99 1091.79-21.29 1090.05-22.58 1088.31-23.86 1085.75-23.86L1085.75-23.86Q1083.09-23.86 1081.32-22.51 1079.56-21.15 1078.68-18.83 1077.8-16.51 1077.8-13.64L1077.8-13.64Q1077.8-10.72 1078.7-8.35 1079.59-5.98 1081.36-4.59 1083.13-3.2 1085.75-3.2ZM1117.36 0.57L1117.36 0.57Q1113.41 0.57 1110.57-1.18 1107.72-2.93 1106.18-6.08 1104.64-9.23 1104.64-13.42L1104.64-13.42Q1104.64-17.61 1106.18-20.82 1107.72-24.02 1110.48-25.83 1113.24-27.63 1116.93-27.63L1116.93-27.63Q1119.06-27.63 1121.14-26.92 1123.22-26.21 1124.92-24.62 1126.63-23.03 1127.64-20.42 1128.65-17.81 1128.65-13.99L1128.65-13.99 1128.65-12.22 1107.63-12.22 1107.63-15.84 1124.39-15.84Q1124.39-18.15 1123.47-19.96 1122.56-21.77 1120.88-22.82 1119.2-23.86 1116.93-23.86L1116.93-23.86Q1114.43-23.86 1112.61-22.63 1110.79-21.4 1109.81-19.42 1108.83-17.45 1108.83-15.2L1108.83-15.2 1108.83-12.78Q1108.83-9.69 1109.91-7.56 1110.98-5.42 1112.9-4.31 1114.82-3.2 1117.36-3.2L1117.36-3.2Q1119.01-3.2 1120.35-3.67 1121.69-4.14 1122.67-5.09 1123.64-6.04 1124.17-7.46L1124.17-7.46 1128.22-6.32Q1127.58-4.26 1126.07-2.71 1124.57-1.15 1122.35-0.29 1120.13 0.57 1117.36 0.57ZM1139.23 0L1135.04 0 1135.04-27.27 1139.09-27.27 1139.09-23.15 1139.37-23.15Q1140.12-25.18 1142.07-26.44 1144.02-27.7 1146.47-27.7L1146.47-27.7Q1146.94-27.7 1147.63-27.68 1148.32-27.66 1148.68-27.63L1148.68-27.63 1148.68-23.37Q1148.46-23.42 1147.71-23.54 1146.95-23.65 1146.12-23.65L1146.12-23.65Q1144.13-23.65 1142.58-22.82 1141.02-22 1140.13-20.55 1139.23-19.11 1139.23-17.26L1139.23-17.26 1139.23 0ZM1172.96-21.16L1172.96-21.16 1169.2-20.1Q1168.84-21.04 1168.16-21.94 1167.48-22.83 1166.3-23.42 1165.13-24.01 1163.3-24.01L1163.3-24.01Q1160.8-24.01 1159.14-22.86 1157.48-21.72 1157.48-19.96L1157.48-19.96Q1157.48-18.39 1158.62-17.49 1159.75-16.58 1162.17-15.98L1162.17-15.98 1166.22-14.99Q1169.87-14.1 1171.67-12.28 1173.46-10.46 1173.46-7.6L1173.46-7.6Q1173.46-5.26 1172.12-3.41 1170.78-1.56 1168.38-0.5 1165.98 0.57 1162.81 0.57L1162.81 0.57Q1158.63 0.57 1155.9-1.24 1153.16-3.05 1152.44-6.53L1152.44-6.53 1156.41-7.53Q1156.98-5.33 1158.57-4.23 1160.16-3.13 1162.74-3.13L1162.74-3.13Q1165.66-3.13 1167.4-4.38 1169.13-5.63 1169.13-7.39L1169.13-7.39Q1169.13-8.81 1168.13-9.77 1167.14-10.74 1165.08-11.22L1165.08-11.22 1160.53-12.29Q1156.79-13.17 1155.04-15.05 1153.29-16.92 1153.29-19.74L1153.29-19.74Q1153.29-22.05 1154.59-23.83 1155.9-25.6 1158.16-26.62 1160.43-27.63 1163.3-27.63L1163.3-27.63Q1167.35-27.63 1169.67-25.85 1171.99-24.08 1172.96-21.16ZM1180.49-36.36L1185.32-36.36 1184.96-10.23 1180.84-10.23 1180.49-36.36ZM1182.9 0.28L1182.9 0.28Q1181.59 0.28 1180.65-0.66 1179.71-1.6 1179.71-2.91L1179.71-2.91Q1179.71-4.23 1180.65-5.17 1181.59-6.11 1182.9-6.11L1182.9-6.11Q1184.22-6.11 1185.16-5.17 1186.1-4.23 1186.1-2.91L1186.1-2.91Q1186.1-2.04 1185.66-1.31 1185.23-0.59 1184.51-0.15 1183.79 0.28 1182.9 0.28Z" opacity="1" transform="matrix(1,0,0,1,0,0)" fill="#ffffff" class="slogan-text-1" data-fill-palette-color="secondary" id="text-1"></path></svg></g></svg></g></svg></g></svg></g><g transform="matrix(1,0,0,1,148.11228477895162,0)"><svg viewBox="0 0 99.29543044209676 89.25454928014778" height="89.25454928014778" width="99.29543044209676"><g><svg xmlns="http://www.w3.org/2000/svg" xmlns:xlink="http://www.w3.org/1999/xlink" version="1.1" x="8" y="0" viewBox="11.934 8.786059695537865 76.13135360654636 81.57794030446215" enable-background="new 0 0 100 100" xml:space="preserve" height="89.25454928014778" width="83.29543044209676" class="icon-icon-0" data-fill-palette-color="accent" id="icon-0"><g fill="#ff5b99" data-fill-palette-color="accent"><path d="M35.742 42.748C22.595 42.748 11.934 53.406 11.934 66.556 11.934 79.704 22.594 90.364 35.742 90.364S59.549 79.705 59.549 66.556C59.549 53.406 48.89 42.748 35.742 42.748M15.226 66.556C15.226 62.205 16.582 58.174 18.893 54.854L19.157 55.054 18.998 55.695 19.586 55.856 19.478 55 19.959 54.946V53.823H20.44L20.614 54.269 20.815 54.785 21.35 55.375S20.708 55.534 20.496 55.534C20.28 55.534 20.388 56.39 20.388 56.39L21.137 56.657 21.62 55.763 22.741 54.517 23.275 52.859 24.292 51.896 23.703 51.47 24.347 51.04 24.401 50.451 22.529 50.987 22.468 50.916A20.6 20.6 0 0 1 25.769 48.626L26.647 49.008 26.058 50.131H24.881L24.667 51.147H25.631L27.022 50.292 27.984 49.33 28.144 48.421 26.754 48.315 27.716 47.672 28.624 47.833 28.466 48.795 29.695 48.045 29.91 48.634 30.178 49.49 29.482 50.345 28.734 51.04 27.609 50.88 28.145 52.003 27.129 51.843 25.416 53.608 25.845 54.197 27.236 54.089 28.413 53.714 29.912 53.556 30.606 53.396S30.606 52.967 30.552 52.701C30.498 52.433 31.087 52.754 31.087 52.754L31.73 52.38 32.21 50.882 33.976 50.078 33.708 49.65 34.137 49.116 32.746 48.9 33.121 48.365 31.354 47.776H30.445L30.765 46.974 31.14 46.599 31.11 46.569A20.6 20.6 0 0 1 35.742 46.039C38.225 46.039 40.604 46.48 42.808 47.289L42.753 47.414 41.862 47.355V47.89L42.219 48.127V48.603L42.517 49.018 41.447 48.365 40.734 48.722 41.09 49.554 41.269 50.505 41.745 51.04 42.872 51.219 42.637 51.694 42.398 52.409 43.409 53.062 43.349 53.359 41.448 51.755 41.331 52.35 42.162 53.181 42.638 53.36 41.567 53.597 41.449 54.132 40.677 53.359 40.2 52.35 40.023 51.338 39.546 51.932 39.902 53.359 40.496 53.777 40.26 55.142 39.903 54.964 39.963 55.678 39.427 55.617 38.894 54.844H38.241L37.29 54.725 36.338 54.786 35.446 55.5 34.852 56.51 33.603 57.462 33.484 57.995V58.651L33.782 59.304 34.377 58.827 34.554 59.184 34.853 59.718 34.912 59.838 35.209 60.194 35.745 59.839 35.685 58.53 36.338 57.697 36.407 57.394C36.458 57.177 36.515 56.925 36.515 56.925L36.753 56.269 37.17 56.33 37.051 56.865 36.812 58.053 37.943 57.935 38.36 58.053 37.467 58.293 37.586 58.887 36.573 59.539 36.634 60.194 35.743 60.432 35.565 60.907 34.851 60.67H34.375V59.66L33.839 59.84V60.374L32.353 61.563 31.52 61.86 31.165 62.276 29.977 61.978 29.916 62.514 30.689 62.811 30.629 63.88 28.487 63.82 28.191 64.296 27.893 65.128 27.537 65.844 28.072 66.438 28.667 67.15 30.57 66.555 30.689 65.842 31.106 65.485 31.819 65.247 31.759 64.772 32.413 64.593 33.364 64.414 33.959 65.127 35.029 65.901 35.504 66.672V67.029L36.098 66.672 35.802 66.139 35.921 65.542 35.385 65.306 34.91 64.653 35.207 63.7 35.741 64.473 36.512 65.069 36.809 66.139 37.583 66.732 37.762 67.386 38.119 66.614 38 66.257 38.177 65.96 39.305 65.009 39.544 63.82 40.021 63.464 40.614 63.524 41.508 62.631 41.566 63.346 42.873 63.761V64.415H41.805L40.2 65.247 38.893 65.961 39.248 66.733 40.437 66.97 41.091 67.268 41.804 66.793 41.863 68.814 39.842 69.23 37.702 68.635 36.87 69.289 37.226 69.645 36.571 69.526 34.493 68.754 33.898 68.814 33.421 68.041V67.09H32.351L31.757 66.971 29.855 67.388 28.369 67.269 27.715 67.626 27.299 67.686 27.062 68.457 25.695 69.408 23.792 70.836 23.673 72.677 23.139 73.867 23.198 74.579 23.674 75.413 25.042 77.73 26.469 78.384 28.846 78.563 28.727 77.551 28.193 77.255 28.43 76.719 28.846 77.195 29.263 78.443 31.045 78.563 31.759 79.276 32.77 79.692 32.888 81.416 33.959 82.783 34.969 84.566 34.077 85.636 34.988 87.052C24.007 86.656 15.226 77.634 15.226 66.556M42.772 85.836L45.252 84.032 44.36 81.833 47.214 78.088 48.104 75.71 48.52 74.401 47.035 75.116 46.143 75.295 43.945 73.927 43.29 72.44 42.459 71.608 41.39 69.23 42.281 69.944 43.947 71.787 44.541 72.618 45.729 73.214 46.085 74.76 47.513 73.808 49.237 71.667 50.069 69.469 49.415 68.935 49.058 68.28 48.642 69.053 47.811 70.004 46.621 68.694 46.266 67.685 47.098 67.864 47.93 68.279 49.119 67.864 49.833 68.101 51.733 66.793 52.804 67.387 53.457 67.031 54.879 69.269 55.582 68.597 55.596 67.744 55.656 65.187 56.093 63.976C56.2 64.821 56.261 65.68 56.261 66.554 56.259 75.417 50.642 82.966 42.772 85.836" fill="#ff5b99" data-fill-palette-color="accent"></path><path d="M87.597 20.826L69.667 8.96A1.04 1.04 0 0 0 68.874 8.809L49.015 13.002C48.615 13.086 48.3 13.398 48.21 13.8L48.091 14.337C47.997 14.76 48.173 15.197 48.536 15.437L56.85 20.94 56.511 22.473C53.507 24.725 51.554 28.303 51.554 32.344 51.554 39.16 57.083 44.69 63.896 44.69S76.24 39.161 76.24 32.344C76.24 30.88 75.971 29.481 75.503 28.178 75.688 27.942 75.815 27.69 75.874 27.423L76.288 25.547 81.652 24.414C82.319 25.357 82.755 26.502 82.864 27.961A1.69 1.69 0 0 0 81.942 29.461C81.942 30.012 82.209 30.495 82.616 30.805 82.155 33.157 81.54 37.478 82.766 39.394 83.127 39.957 83.639 40.318 84.245 40.433A0.76 0.76 0 0 0 84.529 38.943C84.396 38.918 84.221 38.853 84.044 38.576 83.611 37.9 83.51 36.566 83.59 35.06 83.964 36.228 84.539 37.279 85.426 37.863A0.76 0.76 0 0 0 86.26 36.595C85.068 35.81 84.565 33.118 84.457 30.935 84.977 30.646 85.332 30.098 85.332 29.461 85.332 28.794 84.943 28.223 84.383 27.947 84.283 26.392 83.879 25.127 83.255 24.076L87.116 23.26C87.517 23.176 87.832 22.864 87.921 22.463L88.04 21.926A1.045 1.045 0 0 0 87.597 20.826M67.042 16.721C67.059 16.584 67.198 16.472 67.457 16.417 67.973 16.309 68.77 16.471 69.237 16.779 69.47 16.933 69.577 17.095 69.559 17.233L69.483 17.609C69.465 17.746 69.327 17.857 69.069 17.912 68.551 18.021 67.756 17.859 67.289 17.551 67.056 17.396 66.949 17.234 66.966 17.097z" fill="#ff5b99" data-fill-palette-color="accent"></path><path d="M63.896 47.08C61.097 47.08 58.432 47.778 56.008 49.039 60.077 53.741 62.548 59.863 62.548 66.556 62.548 71.453 61.222 76.045 58.918 80H77.355C81.075 80 84.085 76.32 84.085 71.77 84.086 58.141 75.043 47.08 63.896 47.08" fill="#ff5b99" data-fill-palette-color="accent"></path></g></svg></g></svg></g><g><rect width="148.11228477895162" height="3.7495951760209643" y="84.50495410412682" x="247.40771522104836" fill="#ff5b99" data-fill-palette-color="accent"></rect><rect width="148.11228477895162" height="3.7495951760209643" y="84.50495410412682" x="0" fill="#ff5b99" data-fill-palette-color="accent"></rect><rect width="148.11228477895162" height="3.7495951760209643" y="77.00576375208489" x="247.40771522104836" fill="#ff5b99" data-fill-palette-color="accent"></rect><rect width="148.11228477895162" height="3.7495951760209643" y="77.00576375208489" x="0" fill="#ff5b99" data-fill-palette-color="accent"></rect></g></svg></g><defs></defs></svg><rect width="395.52" height="163.6538536464532" fill="none" stroke="none" visibility="hidden"></rect></g></svg></g></svg>